<svg width="30" height="30" viewBox="0 0 30 30" fill="none" xmlns="http://www.w3.org/2000/svg">
<path d="M22.5 11.25H25C25.663 11.25 26.2989 11.5134 26.7678 11.9822C27.2366 12.4511 27.5 13.087 27.5 13.75V27.5L22.5 22.5H15C14.337 22.5 13.7011 22.2366 13.2322 21.7678C12.7634 21.2989 12.5 20.663 12.5 20V18.75M17.5 11.25C17.5 11.913 17.2366 12.5489 16.7678 13.0178C16.2989 13.4866 15.663 13.75 15 13.75H7.5L2.5 18.75V5C2.5 4.33696 2.76339 3.70107 3.23223 3.23223C3.70107 2.76339 4.33696 2.5 5 2.5H15C15.663 2.5 16.2989 2.76339 16.7678 3.23223C17.2366 3.70107 17.5 4.33696 17.5 5V11.25Z" stroke="#4787FA" stroke-opacity="0.71" stroke-width="2" stroke-linecap="round" stroke-linejoin="round"/>
</svg>
